<svg width="2000" height="890" viewBox="0 0 2000 890" fill="none" xmlns="http://www.w3.org/2000/svg">
<path d="M111.211 296.562H0V593.125H111.211V296.562Z" fill="#121212"/>
<path d="M407.776 296.562H296.564V593.125H407.776V296.562Z" fill="#121212"/>
<path d="M556.055 296.562H444.844V593.125H556.055V296.562Z" fill="#121212"/>
<path d="M704.336 296.562H593.125V593.125H704.336V296.562Z" fill="#121212"/>
<path d="M852.619 296.562H741.408V889.688H852.619V296.562Z" fill="#121212"/>
<path d="M259.492 0H148.281V593.126H259.492V0Z" fill="#121212"/>
<path d="M1000.9 296.562H889.689V593.125H1000.9V296.562Z" fill="#121212"/>
<path d="M1334.53 372.743V295.674H1360.07C1365.41 295.674 1370.38 296.675 1375.01 298.676C1379.65 300.678 1383.76 303.459 1387.28 306.98C1390.81 310.539 1393.59 314.617 1395.59 319.251C1397.59 323.884 1398.59 328.889 1398.59 334.19C1398.59 339.491 1397.59 344.495 1395.59 349.129C1393.59 353.763 1390.81 357.878 1387.28 361.4C1383.73 364.958 1379.65 367.701 1375.01 369.703C1370.38 371.705 1365.38 372.706 1360.07 372.706H1334.53V372.743ZM1347.95 359.324H1360.07C1363.49 359.324 1366.71 358.656 1369.75 357.359C1372.79 356.061 1375.46 354.245 1377.76 351.947C1380.06 349.648 1381.87 346.979 1383.21 343.976C1384.54 340.937 1385.17 337.674 1385.17 334.19C1385.17 330.705 1384.5 327.443 1383.21 324.44C1381.87 321.438 1380.06 318.769 1377.76 316.47C1375.46 314.172 1372.79 312.355 1369.79 311.058C1366.78 309.761 1363.56 309.093 1360.11 309.093H1347.99V359.324H1347.95Z" fill="#121212"/>
<path d="M1409.93 372.743V295.674H1423.35V372.743H1409.93Z" fill="#121212"/>
<path d="M1473.4 374.188C1468.02 374.188 1463.06 373.15 1458.46 371.037C1453.86 368.961 1449.86 366.07 1446.45 362.363C1443.04 358.656 1440.37 354.43 1438.44 349.574C1436.51 344.754 1435.55 339.565 1435.55 334.078C1435.55 328.295 1436.59 322.957 1438.66 318.101C1440.74 313.245 1443.56 309.056 1447.19 305.497C1450.79 301.938 1454.86 299.195 1459.42 297.23C1463.98 295.303 1468.76 294.302 1473.7 294.302C1479.26 294.302 1484.63 295.599 1489.86 298.194C1495.08 300.789 1499.72 304.793 1503.72 310.168L1491.71 316.618C1489.26 313.615 1486.45 311.354 1483.26 309.871C1480.07 308.388 1476.85 307.647 1473.55 307.647C1470.25 307.647 1467.21 308.314 1464.28 309.612C1461.31 310.946 1458.72 312.8 1456.42 315.209C1454.12 317.619 1452.31 320.436 1451.01 323.698C1449.67 326.961 1449.04 330.482 1449.04 334.338C1449.04 337.971 1449.67 341.381 1450.97 344.606C1452.27 347.831 1454.01 350.612 1456.27 353.021C1458.53 355.431 1461.13 357.321 1464.13 358.656C1467.1 360.027 1470.28 360.695 1473.7 360.695C1475.96 360.695 1478.22 360.324 1480.37 359.62C1482.56 358.915 1484.59 357.877 1486.52 356.506C1488.45 355.134 1490.19 353.503 1491.71 351.538C1493.23 349.574 1494.49 347.386 1495.53 344.94H1481.48V333.226H1511.32C1511.47 338.823 1510.58 344.124 1508.69 349.018C1506.76 353.948 1504.09 358.285 1500.61 362.066C1497.12 365.847 1493.05 368.813 1488.45 370.926C1483.82 373.039 1478.85 374.114 1473.47 374.114L1473.4 374.188Z" fill="#121212"/>
<path d="M1521.92 372.743V295.674H1535.34V372.743H1521.92Z" fill="#121212"/>
<path d="M1605.3 295.674V309.093H1581.72V372.743H1568.3V309.093H1544.72V295.674H1605.3Z" fill="#121212"/>
<path d="M1628.95 295.674H1644.4L1672.43 372.743H1658.16L1653.19 359.101H1620.16L1615.19 372.743H1600.92L1628.91 295.674H1628.95ZM1625.13 345.645H1648.3L1636.69 313.875L1625.13 345.645Z" fill="#121212"/>
<path d="M1680.99 372.743V295.674H1694.41V359.324H1726.52V372.743H1680.99Z" fill="#121212"/>
<path d="M1334.53 482.878L1349.51 405.809H1360.63L1379.39 455.186L1398.15 405.809H1409.27L1424.24 482.878H1410.53L1401.26 435.206L1383.91 481.136H1374.72L1357.37 435.206L1348.17 482.878H1334.46H1334.53Z" fill="#121212"/>
<path d="M1460.87 405.773H1476.33L1504.35 482.842H1490.08L1485.11 469.2H1452.08L1447.12 482.842H1432.84L1460.83 405.773H1460.87ZM1457.01 455.781H1480.18L1468.58 424.011L1457.01 455.781Z" fill="#121212"/>
<path d="M1560.55 405.773V419.192H1536.97V482.842H1523.55V419.192H1499.98V405.773H1560.55Z" fill="#121212"/>
<path d="M1569.19 482.878V405.809H1617.53V419.228H1582.61V434.872H1610.3V448.291H1582.61V469.421H1617.53V482.841H1569.19V482.878Z" fill="#121212"/>
<path d="M1630.17 482.878V405.809H1659.75C1663.94 405.809 1667.72 406.847 1671.09 408.96C1674.47 411.036 1677.14 413.853 1679.14 417.375C1681.1 420.896 1682.1 424.752 1682.1 429.015C1682.1 432.499 1681.47 435.687 1680.21 438.616C1678.95 441.545 1677.17 444.065 1674.91 446.178C1672.65 448.291 1670.06 449.922 1667.13 451.035L1685.59 482.915H1670.13L1652.3 452.258H1643.66V482.915H1630.24L1630.17 482.878ZM1643.63 438.764H1658.23C1660.16 438.764 1661.9 438.282 1663.46 437.319C1665.02 436.355 1666.31 435.094 1667.28 433.463C1668.24 431.832 1668.72 430.053 1668.72 428.051C1668.72 426.049 1668.24 424.233 1667.28 422.602C1666.31 420.971 1665.05 419.71 1663.46 418.746C1661.86 417.782 1660.12 417.301 1658.23 417.301H1643.63V438.727V438.764Z" fill="#121212"/>
<path d="M1696.56 482.878V405.809H1709.98V482.878H1696.56Z" fill="#121212"/>
<path d="M1747.35 405.773H1762.81L1790.83 482.842H1776.56L1771.59 469.2H1738.56L1733.6 482.842H1719.32L1747.31 405.773H1747.35ZM1743.49 455.781H1766.66L1755.06 424.011L1743.49 455.781Z" fill="#121212"/>
<path d="M1799.4 482.878V405.809H1812.81V469.459H1844.92V482.878H1799.4Z" fill="#121212"/>
<path d="M1334.53 592.977V515.908H1362.08C1366.27 515.908 1370.05 516.946 1373.46 519.059C1376.87 521.135 1379.54 523.952 1381.54 527.474C1383.5 530.995 1384.5 534.888 1384.5 539.077C1384.5 543.266 1383.5 547.343 1381.46 550.828C1379.43 554.35 1376.72 557.13 1373.27 559.206C1369.86 561.282 1366.12 562.32 1362.08 562.32H1347.99V592.977H1334.57H1334.53ZM1347.95 548.863H1360.63C1362.56 548.863 1364.3 548.381 1365.86 547.418C1367.41 546.454 1368.71 545.193 1369.64 543.562C1370.57 541.931 1371.05 540.152 1371.05 538.15C1371.05 536.148 1370.57 534.332 1369.64 532.701C1368.71 531.07 1367.45 529.809 1365.86 528.845C1364.26 527.882 1362.52 527.4 1360.63 527.4H1347.95V548.826V548.863Z" fill="#121212"/>
<path d="M1423.95 594.423C1417.79 594.423 1412.38 592.903 1407.75 589.9C1403.11 586.898 1399.48 582.857 1396.92 577.778C1394.37 572.7 1393.07 567.065 1393.07 560.837V515.908H1406.49V560.837C1406.49 564.507 1407.19 567.88 1408.56 570.957C1409.94 574.034 1411.94 576.481 1414.5 578.297C1417.05 580.114 1420.24 581.04 1423.95 581.04C1427.65 581.04 1430.84 580.151 1433.4 578.297C1435.96 576.481 1437.92 574.034 1439.26 570.957C1440.59 567.88 1441.26 564.507 1441.26 560.837V515.908H1454.68V560.837C1454.68 565.508 1453.94 569.845 1452.49 573.923C1451.01 577.964 1448.93 581.559 1446.23 584.636C1443.52 587.713 1440.26 590.123 1436.51 591.865C1432.77 593.607 1428.54 594.46 1423.95 594.46V594.423Z" fill="#121212"/>
<path d="M1468.91 592.978V515.909H1498.5C1502.68 515.909 1506.47 516.947 1509.84 519.06C1513.21 521.136 1515.88 523.953 1517.88 527.475C1519.85 530.997 1520.85 534.852 1520.85 539.115C1520.85 542.6 1520.22 545.788 1518.96 548.716C1517.7 551.645 1515.92 554.166 1513.66 556.279C1511.4 558.392 1508.8 560.023 1505.87 561.135L1524.33 593.015H1508.87L1491.04 562.358H1482.41V593.015H1468.99L1468.91 592.978ZM1482.37 548.865H1496.98C1498.9 548.865 1500.65 548.383 1502.2 547.419C1503.76 546.455 1505.06 545.195 1506.02 543.564C1506.98 541.932 1507.47 540.153 1507.47 538.151C1507.47 536.149 1506.98 534.333 1506.02 532.702C1505.06 531.071 1503.8 529.81 1502.2 528.847C1500.61 527.883 1498.87 527.401 1496.98 527.401H1482.37V548.827V548.865Z" fill="#121212"/>
<path d="M1568.04 594.424C1562.81 594.424 1557.92 593.386 1553.32 591.31C1548.73 589.234 1544.72 586.38 1541.24 582.71C1537.75 579.04 1535.05 574.776 1533.08 569.957C1531.12 565.138 1530.15 559.948 1530.15 554.462C1530.15 548.976 1531.12 543.749 1533.08 538.892C1535.05 534.073 1537.75 529.81 1541.24 526.177C1544.72 522.507 1548.73 519.653 1553.32 517.577C1557.92 515.501 1562.81 514.463 1568.04 514.463C1574.27 514.463 1580.01 515.909 1585.28 518.8C1590.54 521.692 1594.88 525.51 1598.33 530.329L1586.32 536.779C1584.16 534.11 1581.46 531.96 1578.23 530.329C1575.01 528.698 1571.6 527.92 1568 527.92C1564.63 527.92 1561.44 528.624 1558.48 529.996C1555.51 531.367 1552.91 533.295 1550.65 535.704C1548.39 538.114 1546.69 540.968 1545.43 544.193C1544.17 547.419 1543.54 550.829 1543.54 554.462C1543.54 558.095 1544.17 561.579 1545.43 564.768C1546.69 567.956 1548.43 570.773 1550.69 573.22C1552.95 575.666 1555.51 577.557 1558.48 578.928C1561.44 580.3 1564.59 581.004 1567.97 581.004C1571.64 581.004 1575.05 580.189 1578.23 578.558C1581.42 576.927 1584.09 574.777 1586.24 572.07L1598.25 578.558C1594.8 583.34 1590.47 587.158 1585.2 590.049C1579.94 592.941 1574.19 594.387 1567.97 594.387L1568.04 594.424Z" fill="#121212"/>
<path d="M1654.08 515.908H1667.5V592.977H1654.08V558.39H1622.16V592.977H1608.74V515.908H1622.16V544.971H1654.08V515.908Z" fill="#121212"/>
<path d="M1704.09 515.908H1719.55L1747.57 592.977H1733.3L1728.33 579.335H1695.3L1690.34 592.977H1676.06L1704.05 515.908H1704.09ZM1700.23 565.879H1723.4L1711.8 534.109L1700.23 565.879Z" fill="#121212"/>
<path d="M1782.01 594.423C1777.75 594.423 1773.67 593.756 1769.78 592.421C1765.88 591.087 1762.44 589.159 1759.51 586.638C1756.58 584.118 1754.47 581.115 1753.17 577.593L1765.77 572.959C1766.29 574.442 1767.33 575.777 1768.92 576.963C1770.52 578.186 1772.45 579.15 1774.71 579.891C1776.97 580.633 1779.41 581.004 1782.01 581.004C1784.6 581.004 1787.2 580.596 1789.53 579.78C1791.87 578.965 1793.76 577.816 1795.17 576.296C1796.62 574.813 1797.32 573.071 1797.32 571.106C1797.32 569.141 1796.58 567.436 1795.06 566.138C1793.54 564.841 1791.61 563.803 1789.28 563.024C1786.94 562.246 1784.49 561.653 1782.01 561.245C1776.52 560.392 1771.63 559.095 1767.29 557.353C1762.96 555.61 1759.55 553.164 1757.02 550.013C1754.5 546.899 1753.24 542.858 1753.24 537.891C1753.24 533.22 1754.58 529.142 1757.25 525.658C1759.92 522.173 1763.44 519.467 1767.81 517.502C1772.19 515.574 1776.89 514.573 1781.97 514.573C1786.2 514.573 1790.28 515.241 1794.21 516.538C1798.14 517.873 1801.58 519.8 1804.51 522.321C1807.48 524.842 1809.59 527.919 1810.89 531.478L1798.21 536.037C1797.69 534.554 1796.65 533.22 1795.06 532.034C1793.46 530.847 1791.54 529.847 1789.28 529.142C1787.01 528.438 1784.57 528.067 1781.94 528.067C1779.34 528.067 1776.86 528.438 1774.52 529.29C1772.19 530.143 1770.3 531.329 1768.81 532.775C1767.33 534.221 1766.63 535.926 1766.63 537.854C1766.63 540.3 1767.33 542.154 1768.7 543.414C1770.07 544.675 1771.93 545.564 1774.22 546.157C1776.52 546.714 1779.12 547.232 1781.94 547.714C1787.09 548.53 1791.83 549.865 1796.21 551.792C1800.58 553.72 1804.07 556.241 1806.74 559.429C1809.37 562.617 1810.7 566.472 1810.7 571.069C1810.7 575.665 1809.37 579.817 1806.74 583.302C1804.1 586.824 1800.58 589.53 1796.21 591.495C1791.83 593.422 1787.09 594.423 1781.94 594.423H1782.01Z" fill="#121212"/>
<path d="M1823.75 592.977V515.908H1837.17V592.977H1823.75Z" fill="#121212"/>
<path d="M1852.52 592.977V515.908H1867.05L1899.6 568.696V515.908H1913.02V592.977H1898.52L1865.94 540.189V592.977H1852.52Z" fill="#121212"/>
<path d="M1962.06 594.423C1956.69 594.423 1951.72 593.385 1947.12 591.272C1942.53 589.196 1938.52 586.304 1935.11 582.597C1931.7 578.89 1929.03 574.664 1927.1 569.808C1925.18 564.989 1924.21 559.799 1924.21 554.313C1924.21 548.53 1925.25 543.192 1927.33 538.335C1929.4 533.479 1932.22 529.29 1935.85 525.732C1939.45 522.173 1943.53 519.43 1948.09 517.465C1952.65 515.537 1957.43 514.536 1962.36 514.536C1967.92 514.536 1973.29 515.834 1978.52 518.429C1983.75 521.024 1988.38 525.027 1992.39 530.402L1980.37 536.853C1977.93 533.85 1975.11 531.589 1971.92 530.106C1968.73 528.623 1965.51 527.882 1962.21 527.882C1958.91 527.882 1955.87 528.549 1952.94 529.846C1949.98 531.181 1947.38 533.034 1945.08 535.444C1942.79 537.854 1940.97 540.671 1939.67 543.933C1938.34 547.195 1937.71 550.717 1937.71 554.572C1937.71 558.205 1938.34 561.616 1939.63 564.841C1940.93 568.066 1942.67 570.846 1944.94 573.256C1947.2 575.665 1949.79 577.556 1952.79 578.89C1955.76 580.262 1958.95 580.929 1962.36 580.929C1964.62 580.929 1966.88 580.559 1969.03 579.854C1971.22 579.15 1973.26 578.112 1975.18 576.74C1977.11 575.369 1978.85 573.738 1980.37 571.773C1981.89 569.808 1983.15 567.621 1984.19 565.174H1970.14V553.46H1999.98C2000.13 559.058 1999.24 564.359 1997.35 569.252C1995.43 574.182 1992.76 578.52 1989.27 582.301C1985.79 586.082 1981.71 589.048 1977.11 591.161C1972.48 593.274 1967.51 594.349 1962.14 594.349L1962.06 594.423Z" fill="#121212"/>
</svg>
